<svg xmlns="http://www.w3.org/2000/svg" version="1.1" xmlns:xlink="http://www.w3.org/1999/xlink" xmlns:svgjs="http://svgjs.dev/svgjs" viewBox="0 0 800 800"><g fill="none" stroke-width="1" stroke="hsl(0, 0%, 0%)" stroke-linecap="round"><path d="M676.82 591.94C727.72 620.93 711.75 667.08 659.82 700.9 586.73 712.16 519.05 677.95 490.06 589.87 461.07 482.33 476.25 377.01 511.34 303.05 525.26 246.11 517.72 206.65 466.82 177.65 370.87 148.66 277.79 135.62 223.51 154.56 180.88 190.51 178 272.33 207 379.87 235.99 467.95 291.37 525.67 371.99 552.4 464.28 556.59 580.87 562.94 676.82 591.94Q676.82 591.94 676.82 591.94" opacity="0.23"></path><path d="M669.45 605.59C718.49 632.51 708.84 670.9 665.95 695.76 603.66 701.15 543.82 665.32 516.9 582.42 489.98 482.68 501.07 383.46 528.06 311.63 535.67 253.3 523.49 212.11 474.45 185.18 386.44 158.26 300.59 150.7 248.63 173.74 204.79 210.29 197.88 287.68 224.81 387.42 251.73 470.32 307.38 527.97 386.51 557.88 473.76 568.31 581.44 578.67 669.45 605.59Q669.45 605.59 669.45 605.59" opacity="0.27"></path><path d="M661.98 615.99C708.93 640.84 704.87 671.97 670.41 688.81 618.59 689.16 566.66 652.46 541.81 574.93 516.95 483.01 523.88 390.32 543.14 321.39 545.02 262.88 528.93 220.87 481.98 196.02 401.69 171.16 323.26 168.17 274.32 194.11 230.6 230.46 220.83 303.01 245.68 394.93 270.53 472.46 325.31 529.31 401.6 561.53 483.11 577.27 581.69 591.13 661.98 615.99Q661.98 615.99 661.98 615.99" opacity="0.70"></path><path d="M654.34 622.96C699.01 645.74 699.81 670.23 673.1 680.05 631.22 676.22 587.13 639.35 564.35 567.38 541.56 483.29 544.41 397.51 556.43 332.21 553.27 274.68 534.01 232.76 489.34 209.98 416.64 187.2 345.7 187.86 300.37 215.54 257.95 250.97 246.35 318.29 269.13 402.38 291.91 474.35 344.76 529.69 417.04 563.38 492.24 583.41 581.64 600.18 654.34 622.96Q654.34 622.96 654.34 622.96" opacity="0.20"></path><path d="M646.98 626.55C691.25 656.52 622.68 644.32 583.66 559.93 562.95 483.67 562.06 405.12 567.67 344.11 560.38 288.64 538.9 247.71 496.98 227 431.78 206.29 368.42 209.72 327.14 238.04 287.03 271.91 274.53 333.67 295.25 409.93 315.96 476.15 365.95 529.29 433.21 563.59 501.63 586.85 581.78 605.83 646.98 626.55Q646.98 626.55 646.98 626.55" opacity="0.26"></path><path d="M639.48 626.55C694.26 663.82 637.1 659.08 599.83 552.43 562.55 414.01 559.26 283.95 504.48 246.68 376.25 209.4 285.8 279.01 323.08 417.43 360.35 524.08 511.25 589.27 639.48 626.55Q639.48 626.55 639.48 626.55" opacity="0.19"></path><path d="M631.98 623.02C685.38 656.15 645.55 642.73 612.42 544.93 579.28 421.85 565.38 301.87 511.98 268.74 400.08 235.6 319.14 301.85 352.28 424.93 385.41 522.73 520.08 589.88 631.98 623.02Q631.98 623.02 631.98 623.02" opacity="0.96"></path><path d="M624.45 616C675.26 645 650.2 625.5 621.21 537.42 592.21 429.86 570.26 321.85 519.45 292.85 423.58 263.86 353.31 324.86 382.31 432.42 411.3 520.5 528.58 587.01 624.45 616Q624.45 616 624.45 616" opacity="0.64"></path><path d="M616.98 605.63C663.93 630.48 650.88 607.46 626.03 529.93 601.17 437.99 573.93 343.5 526.98 318.65 446.67 293.79 387.86 347.99 412.72 439.93 437.57 517.46 536.67 580.77 616.98 605.63Q616.98 605.63 616.98 605.63" opacity="0.40"></path><path d="M609.48 592.04C651.4 612.75 647.51 588.65 626.8 522.43 606.08 446.15 576.4 366.41 534.48 345.7 469.26 324.98 422.15 371.15 442.87 447.43 463.58 513.65 544.26 571.32 609.48 592.04Q609.48 592.04 609.48 592.04" opacity="0.86"></path><path d="M601.98 575.46C637.69 592.02 640.07 569.08 623.51 514.93 606.94 454.31 577.69 390.17 541.98 373.61 491.3 357.04 455.68 394.31 472.25 454.93 488.81 509.08 551.3 558.89 601.98 575.46Q601.98 575.46 601.98 575.46" opacity="0.59"></path><path d="M594.48 556.13C622.86 568.55 628.64 548.88 616.22 507.43 603.79 462.31 577.86 414.34 549.48 401.92 512.64 389.49 487.91 417.31 500.34 462.43 512.76 503.88 557.64 543.7 594.48 556.13Q594.48 556.13 594.48 556.13" opacity="0.75"></path><path d="M586.98 534.37C606.93 542.65 613.34 528.08 605.06 499.93 556.32 442.66 549.08 512.08 586.98 534.37Q586.98 534.37 586.98 534.37" opacity="0.12"></path></g></svg>