<svg xmlns="http://www.w3.org/2000/svg" version="1.1" xmlns:xlink="http://www.w3.org/1999/xlink" xmlns:svgjs="http://svgjs.dev/svgjs" viewBox="0 0 800 800"><defs><linearGradient x1="50%" y1="0%" x2="50%" y2="100%" id="ssscribble-grad"><stop stop-color="hsl(206, 4%, 17%)" stop-opacity="1" offset="0%"></stop><stop stop-color="hsl(331, 5%, 4%)" stop-opacity="1" offset="100%"></stop></linearGradient></defs><g fill="none" stroke-width="1" stroke="url(#ssscribble-grad)" stroke-linecap="round"><path d="M1003.88 202.17C958.18 230.26 865.65 259.36 756.14 291.02 658.31 325.21 596.05 366.53 578.97 418.22 607.47 476.62 665.85 548.13 734.44 630.88 803.59 713.3 851.85 794.87 872.49 862.74 868.35 904.1 838.1 911.48 790.36 878.26 728.79 815.68 662.75 731.61 599.44 649.09 534.41 599.61 477.16 597.38 429.58 651.74 382.62 751.59 344.77 868.9 316.67 964.61 288.57 1005.65 271.56 976.36 265.53 891.02 260.12 777.11 266.26 668.84 282.6 593.93 297.21 566.52 316.99 585.95 335.25 637.32 339.68 709.58 329.6 776.74 296.91 824.03 239.45 850.67 157.87 847.71 59.46 820.81 -38.37 775.34 -121.95 718.52 -171.04 659.3 -174.57 595.26 -128.3 536.76 -41.31 487.4 57.35 437.97 144.18 398.57 189.88 370.47 175.03 342.37 109.23 326.9 16.44 323.34 -114.68 323.4 -118.38 358.25 2.31 365.7 102.08 349.3 194.23 311.93 267.75 248.47 320.42 164.36 349.71 63.88 361.3 -37.62 356.85 -118.26 346.3 -162.89 336.95 -156.1 323.56 -101.79 318.05 -9.51 323.05 93.54 327.99 168.05 344.16 191.66 372.26 150.65 400.35 54.95 439.05 -56.67 487.1 -145.68 535.09 -189.21 591.71 -171.01 653.79 -100.94 711.84 2.17 768.66 111.44 816.41 203.28 848.12 265.76 859.17 291.7 843.34 287.17 806.64 256.12 747.81 214.89 677.28 175.77 617.88 136.33 579.02 111.08 577.42 101.38 621.75 98.38 706.11 108.17 813.9 126.97 917.53 148.3 989.03 174.07 1003.88 202.17Q1003.88 202.17 1003.88 202.17" opacity="0.10"></path><path d="M966.88 275.63C927.61 301.17 847.7 334.85 749.27 376.53 653.85 419.28 581.46 471.57 543.24 532.8 543.12 594.47 574.22 662.19 624.01 730.35 686.45 788.69 743.09 835.21 784.58 860.26 812.43 860.37 818.49 831.25 805.86 774.23 779.24 705.56 741.36 632.57 698.61 574.38 650.45 552.44 603.86 573.18 562.64 638.52 520.56 735.71 485.9 842.07 460.35 927.6 434.81 967.71 419.6 949.31 413.5 881.45 406.55 783.02 406.68 679.06 410.57 593.14 409.06 539.39 404.87 524.47 392.12 542.93 365.38 589.71 322.65 646.93 261.32 700.68 186.35 749.52 99.43 779.4 10.39 789.21 -65.98 784.52 -119.99 763.83 -138.6 733.29 -119.1 695.25 -61.25 654.9 24.31 617.06 112.88 577.65 187.61 544.1 226.88 518.56 215.88 493.01 161.84 476.68 81.96 467.92 -8.02 457.59 -81.67 451.47 -123.66 445.24 -130.44 431.52 -98.75 410.15 -38.15 375.48 42.53 326.3 129.49 259.76 211.13 177.44 284.68 90.21 342.16 2.7 383.65 -70.67 411.73 -115.73 428.78 -123.73 440.07 -88.71 444.92 -21.52 450.67 67.88 461.09 156.46 470.18 214.47 486.77 227.72 512.32 187.63 537.86 102.11 571.15 0.92 610.22 -86.41 647.98 -141.91 688.69 -148.12 728.11 -107.47 761.09 -30.56 786.1 65.33 797.39 160.6 795.28 244.22 774.47 303.63 734.39 337 686.23 345.43 629.55 335.59 575.46 316.61 541.46 287.82 532.68 262.16 558.18 244.76 618.9 227.8 707.08 221.97 806.93 227.39 896.67 233.89 955.88 250.09 966.88 275.63Q966.88 275.63 966.88 275.63" opacity="0.49"></path><path d="M929.88 422.27C896.6 445.26 828.9 477.48 742.67 517.52 653.4 557.12 576.85 603.3 523.79 653.03 499.4 698.8 502.82 742.79 527.57 779.06 570.76 802.88 619.12 810.73 663.79 797.81 705.9 768.35 734.62 719.63 748.75 657.36 753.61 597.73 745.69 545.77 728.61 515.18 705.9 518.5 678.98 557.07 651.36 628.42 622.3 720.21 595.42 815.04 572.43 890.6 549.44 929.2 531.43 920.17 517.14 868.9 501.4 787.82 486.5 694.06 469.37 606.14 446.61 536.03 416.67 493.61 376.38 479.76 326.81 493.48 265.09 525.46 192.85 565.53 118.06 612.73 42.44 653.4 -24.68 682.64 -73.36 705.66 -97.4 714.8 -89.86 712 -53.65 703.35 9.8 686.92 90.2 666.1 167.56 643.51 230.6 619.88 263.88 596.89 256.27 573.9 213.17 552.64 146.53 531.87 66.43 509.34 -6.68 483.95 -59.67 452.76 -88.72 415.73 -86.43 368.73 -56.49 310.29 -4.15 245.62 62.86 171.94 135 94.61 209.8 24.41 278.14 -34.83 336.5 -72.49 387.86 -82.58 428.68 -60.79 460.92 -7.54 487.76 63.52 510.19 144.2 530.96 216.41 550.18 258.82 570.71 263.21 593.7 224.63 616.69 149.07 641.05 58.9 665.19 -24.01 687.77 -86.5 707.16 -112 720.16 -98.48 727.77 -51.04 724.8 21.52 708.87 105.09 685.94 191.3 650.61 267.27 605.94 326.87 544.05 382.5 498.93 402.79 553.99 393.79 623.82 383.9 710.03 379.54 799.01 383.3 874.52 386.61 922.27 399.28 929.88 422.27Q929.88 422.27 929.88 422.27" opacity="0.23"></path><path d="M892.88 555.81C865.16 576.24 809.08 601.49 735.68 629.98 655.58 657.28 580.42 685.39 519.42 711.12 467.26 738.74 488.23 731.68 535.42 686.33 573.56 645.04 606.99 595.36 632.33 544.05 660.78 490.94 664.93 522.98 647.42 620.8 632.76 704.84 614.75 787.78 594.32 853.61 573.89 890.12 551.99 888.85 528.12 852.79 503.07 789.75 473.92 710.5 439.21 628.53 401.05 552.76 355.16 493.21 301.34 454.03 244.5 436.14 181.74 437.16 116.81 451.49 57.16 478.53 4.3 508.7 -34.7 536.39 -55.08 565.57 -53.04 586.87 -26.05 598.87 19.96 608.76 83.5 609.68 155.71 602.52 221.22 594.36 273.16 579.81 300.88 559.38 296.17 538.94 263.07 513.59 209.53 483.22 141.39 451.84 73.74 413.74 16.95 368.44 -26.15 321.03 -46.62 266.07 -44.39 205.4 -22.59 146.22 16.58 86.71 66.75 32.88 125.77 -8.22 186.61 -33.47 244.56 -36.86 302.05 -18.96 353.02 22.26 396.55 83.05 437.57 150.04 472.2 217.66 501.2 272.82 529.2 300.99 553.31 298.12 573.75 261.61 594.18 195.78 609.97 116.98 620.51 40.82 631.33 -43.29 610.22 -30.4 575.57 53.15 549.12 125.73 517.61 199.65 485.38 267.72 461.98 329.58 447.02 379.47 446.49 417.45 465.53 446.1 504.33 466.04 562.4 480.68 634.17 490.37 713.45 499.42 789.48 510.67 850.91 520.72 888.16 535.37 892.88 555.8Q892.88 555.81 892.88 555.81" opacity="0.16"></path><path d="M855.93 597.57C833.46 615.45 788.38 631.87 728.03 645.96 659.32 659 590.23 667.77 527.98 670.48 439.39 666.33 411.41 625.88 426.59 551.51 475.54 484.82 520.38 436.5 541.27 450.94 550.89 489.07 553.38 545.3 548.75 614.8 543.65 689.25 532.17 760.14 514.29 816.52 496.41 850.36 472.98 855.19 444.35 832.49 415.26 787.01 380.25 724.8 339.64 654.93 256.78 516.9 156.12 423.2 60.31 385.01 -1.73 395.04 -11.68 424.27 50.68 443.54 99.83 455.09 158.74 460.26 220.56 458 274 455.71 315.46 445.87 337.93 427.99 335.48 410.11 311.14 385.04 269.99 353.62 214.9 322.15 156.49 284.46 102.28 241.93 15.99 160.69 -4.74 75.63 31.83 18.73 108.31 10.04 200.74 65.8 282.54 177.61 324.09 234.38 360.5 286.41 390.86 325 421.01 340.81 445.34 332.37 463.22 298.55 481.11 242.18 491.69 174.9 495.26 107.35 498.62 44.75 494.74 -1.3 484.18 -26.34 464.35 -14.57 427.73 71.66 398.11 185.22 408.4 306.46 467.08 402.72 579.58 468.85 646.89 497.13 715.48 520.88 777.47 541.56 825.52 561.2 853.48 579.69 855.93 597.57Q855.93 597.57 855.93 597.57" opacity="0.22"></path><path d="M818.88 523.2C766.39 553.85 660.74 561.38 545.11 544.53 445.86 524.38 384.64 480.27 360.02 426.37 366.77 395.96 384.74 394.96 395.31 445.69 410.46 545.81 405.52 673.53 374.87 779.6 344.22 820.98 290.75 778.1 222.49 679.99 158.8 558.42 92.99 451.13 46.07 378.5 30.51 337.97 59.22 323.75 136.01 317.16 229.17 320.2 322.39 310.9 374.88 280.24 355.67 249.6 283.02 200.5 193.13 144.35 103.89 97.81 53.24 64.19 46.18 64.53 70.47 96.98 120.45 171.76 175.45 270.86 237.4 346.51 288.52 376.98 319.17 335.63 349.82 229.56 357.11 114.25 348.28 36.59 346.39 8.33 344.26 41.83 360.14 112.41 407.37 206.49 490.53 298.44 602.25 371.71 714.6 441.68 799.67 492.55 818.88 523.2Q818.88 523.2 818.88 523.2" opacity="0.11"></path><path d="M781.88 376.25C742.6 401.79 662.3 404.55 567.41 389.24 473.11 377.2 397.18 356.19 345.96 340.59 315.27 348.87 300.21 384.75 289.77 455.15 285.71 550.65 273.88 657.07 248.33 742.6 222.79 782.71 185.95 762.74 145.75 697.92 111.92 605.35 87.11 508.05 84.33 425.79 102.07 356.7 150.91 308.64 226.49 275.91 302.65 250.94 372.6 228.42 411.88 202.87 400.88 177.33 351.25 151.19 283.84 131.89 205.97 120.35 145.91 128.55 113.34 164.15 98.07 212.94 107.27 283.14 130.45 356.99 160.54 403.08 192.14 412.72 217.68 372.63 243.23 287.1 260.29 191.03 274.47 114.24 295.56 62.55 326.22 53.76 374.97 78.96 441.02 128.03 528.17 188.91 624.77 245.22 710.9 304.8 770.88 350.71 781.88 376.25Q781.88 376.25 781.88 376.25" opacity="0.60"></path><path d="M744.91 243.22C717.28 263.65 660.76 272.93 590.17 275.56 512.9 282.79 440.68 292.27 381.52 312.19 331.15 347.63 293.53 402.42 265.78 475.31 242.32 556.77 221.56 639.72 201.13 705.55 180.69 742.06 162.51 739.12 150.56 703.94 142.91 645.25 148.63 574.07 172.22 504.75 204.6 435.41 255.14 377.29 317.43 333.34 373.04 292.54 421.28 261.87 448.91 241.43 444.11 221 414.18 212.74 369.92 218.13 312.48 226.66 260.2 252.9 222.02 295.45 189.06 337.98 173.62 387.49 173.68 431.21 177.53 451.41 191.07 446.06 211.5 409.55 231.93 343.72 257.33 269.05 288.9 202.58 324.24 144.66 371.58 111.55 431.32 102.89 496.28 109.75 570.24 132.17 642.66 160.34 701.89 193.13 740.11 222.78 744.91 243.22Q744.91 243.22 744.91 243.22" opacity="0.73"></path><path d="M707.88 202.5C655.37 233.15 549.11 274.16 449.73 341.99 354.94 434.38 288.56 562.54 257.91 668.61 227.25 709.99 238.13 664.37 292.76 583.75 351.96 484.2 433.37 404.01 485.88 373.36 466.68 342.7 405.21 367.4 350.65 426.78 291.44 467.22 273.38 487.99 304.03 446.61 334.68 340.54 408.25 237.23 507.63 185.01 602.37 157.35 688.68 171.85 707.88 202.5Q707.88 202.5 707.88 202.5" opacity="0.43"></path><path d="M670.88 277.92C643.18 298.36 585.55 346.31 525.84 412.95 460.9 482.76 409.48 565.78 389.05 631.6 368.62 668.11 383.03 661.77 421.2 630.92 454.12 585.66 495.18 541.32 522.88 520.89 506.46 504.13 432.59 525.22 446.64 483.6 467.07 417.78 516.84 351.33 575.92 308.3 626.18 268.45 666.16 257.49 670.88 277.92Q670.88 277.92 670.88 277.92" opacity="0.46"></path></g></svg>